<mxfile host="app.diagrams.net" agent="Mozilla/5.0 (Windows NT 10.0; Win64; x64) AppleWebKit/537.36 (KHTML, like Gecko) Chrome/135.0.0.0 Safari/537.36" version="26.2.14">
  <diagram id="R2lEEEUBdFMjLlhIrx00" name="Page-1">
    <mxGraphModel dx="1892" dy="562" grid="0" gridSize="10" guides="1" tooltips="1" connect="1" arrows="1" fold="1" page="1" pageScale="1" pageWidth="850" pageHeight="1100" math="0" shadow="0" extFonts="Permanent Marker^https://fonts.googleapis.com/css?family=Permanent+Marker">
      <root>
        <mxCell id="0" />
        <mxCell id="1" parent="0" />
        <mxCell id="jKXEdhJsQPB0T8cpcpmc-20" style="edgeStyle=orthogonalEdgeStyle;rounded=0;orthogonalLoop=1;jettySize=auto;html=1;entryX=0.906;entryY=0.476;entryDx=0;entryDy=0;startArrow=ERmandOne;startFill=0;endArrow=none;endFill=0;exitX=0.136;exitY=1.017;exitDx=0;exitDy=0;exitPerimeter=0;entryPerimeter=0;" parent="1" target="jKXEdhJsQPB0T8cpcpmc-10" edge="1">
          <mxGeometry relative="1" as="geometry">
            <mxPoint x="-23.039999999999964" y="190.85000000000002" as="sourcePoint" />
            <mxPoint x="-108" y="510" as="targetPoint" />
            <Array as="points">
              <mxPoint x="-23" y="494" />
              <mxPoint x="-108" y="494" />
            </Array>
          </mxGeometry>
        </mxCell>
        <mxCell id="jKXEdhJsQPB0T8cpcpmc-22" style="edgeStyle=orthogonalEdgeStyle;rounded=0;orthogonalLoop=1;jettySize=auto;html=1;exitX=0.182;exitY=1.006;exitDx=0;exitDy=0;entryX=1;entryY=0.5;entryDx=0;entryDy=0;startArrow=ERmandOne;startFill=0;exitPerimeter=0;endArrow=none;endFill=0;" parent="1" edge="1">
          <mxGeometry relative="1" as="geometry">
            <Array as="points">
              <mxPoint x="-36" y="243" />
            </Array>
            <mxPoint x="-35.97999999999979" y="191.3" as="sourcePoint" />
            <mxPoint x="-120" y="243" as="targetPoint" />
          </mxGeometry>
        </mxCell>
        <mxCell id="jKXEdhJsQPB0T8cpcpmc-26" style="edgeStyle=orthogonalEdgeStyle;rounded=0;orthogonalLoop=1;jettySize=auto;html=1;exitX=0.878;exitY=0.983;exitDx=0;exitDy=0;startArrow=ERmandOne;startFill=0;endArrow=none;endFill=0;exitPerimeter=0;entryX=0;entryY=0.5;entryDx=0;entryDy=0;" parent="1" target="jKXEdhJsQPB0T8cpcpmc-11" edge="1">
          <mxGeometry relative="1" as="geometry">
            <mxPoint x="64.58000000000015" y="190.14999999999998" as="sourcePoint" />
            <mxPoint x="129" y="270" as="targetPoint" />
            <Array as="points">
              <mxPoint x="65" y="268" />
            </Array>
          </mxGeometry>
        </mxCell>
        <mxCell id="jKXEdhJsQPB0T8cpcpmc-28" style="edgeStyle=orthogonalEdgeStyle;rounded=0;orthogonalLoop=1;jettySize=auto;html=1;exitX=0.819;exitY=1.003;exitDx=0;exitDy=0;exitPerimeter=0;startArrow=ERmandOne;startFill=0;endArrow=none;endFill=0;" parent="1" target="jKXEdhJsQPB0T8cpcpmc-14" edge="1">
          <mxGeometry relative="1" as="geometry">
            <Array as="points">
              <mxPoint x="45" y="615" />
            </Array>
            <mxPoint x="45.08999999999992" y="191.1500000000001" as="sourcePoint" />
            <mxPoint x="125" y="615" as="targetPoint" />
          </mxGeometry>
        </mxCell>
        <mxCell id="jKXEdhJsQPB0T8cpcpmc-30" style="edgeStyle=orthogonalEdgeStyle;rounded=0;orthogonalLoop=1;jettySize=auto;html=1;startArrow=ERmandOne;startFill=0;endArrow=none;endFill=0;entryX=1;entryY=0;entryDx=0;entryDy=0;exitX=0.25;exitY=1;exitDx=0;exitDy=0;" parent="1" edge="1">
          <mxGeometry relative="1" as="geometry">
            <Array as="points">
              <mxPoint x="-13" y="190" />
              <mxPoint x="-11" y="190" />
              <mxPoint x="-11" y="731" />
              <mxPoint x="-137" y="731" />
            </Array>
            <mxPoint x="-11" y="204" as="sourcePoint" />
            <mxPoint x="-138" y="734" as="targetPoint" />
          </mxGeometry>
        </mxCell>
        <mxCell id="jKXEdhJsQPB0T8cpcpmc-31" style="edgeStyle=orthogonalEdgeStyle;rounded=0;orthogonalLoop=1;jettySize=auto;html=1;exitX=0.727;exitY=1.01;exitDx=0;exitDy=0;startArrow=ERmandOne;startFill=0;endArrow=none;endFill=0;exitPerimeter=0;" parent="1" target="jKXEdhJsQPB0T8cpcpmc-18" edge="1">
          <mxGeometry relative="1" as="geometry">
            <mxPoint x="34.97000000000003" y="191.5" as="sourcePoint" />
            <mxPoint x="129" y="718" as="targetPoint" />
            <Array as="points">
              <mxPoint x="35" y="716" />
            </Array>
          </mxGeometry>
        </mxCell>
        <mxCell id="jKXEdhJsQPB0T8cpcpmc-33" style="edgeStyle=orthogonalEdgeStyle;rounded=0;orthogonalLoop=1;jettySize=auto;html=1;entryX=0.5;entryY=0;entryDx=0;entryDy=0;startArrow=ERmandOne;startFill=0;exitX=0.363;exitY=1;exitDx=0;exitDy=0;endArrow=none;endFill=0;exitPerimeter=0;" parent="1" source="jKXEdhJsQPB0T8cpcpmc-1" target="VznqwO-0SXFQ0k9bwNJa-7" edge="1">
          <mxGeometry relative="1" as="geometry">
            <Array as="points">
              <mxPoint y="741" />
              <mxPoint x="-75" y="741" />
              <mxPoint x="-75" y="783" />
            </Array>
            <mxPoint y="195" as="sourcePoint" />
            <mxPoint x="-75" y="781" as="targetPoint" />
          </mxGeometry>
        </mxCell>
        <mxCell id="jKXEdhJsQPB0T8cpcpmc-34" style="edgeStyle=orthogonalEdgeStyle;rounded=0;orthogonalLoop=1;jettySize=auto;html=1;exitX=0.638;exitY=1.003;exitDx=0;exitDy=0;startArrow=ERmandOne;startFill=0;endArrow=none;endFill=0;exitPerimeter=0;" parent="1" edge="1">
          <mxGeometry relative="1" as="geometry">
            <Array as="points">
              <mxPoint x="26" y="741" />
              <mxPoint x="98" y="741" />
            </Array>
            <mxPoint x="26.180000000000064" y="191.14999999999998" as="sourcePoint" />
            <mxPoint x="98" y="783" as="targetPoint" />
          </mxGeometry>
        </mxCell>
        <mxCell id="jKXEdhJsQPB0T8cpcpmc-1" value="User" style="rounded=0;whiteSpace=wrap;html=1;" parent="1" vertex="1">
          <mxGeometry x="-40" y="141" width="110" height="50" as="geometry" />
        </mxCell>
        <mxCell id="jKXEdhJsQPB0T8cpcpmc-4" value="Message" style="rounded=0;whiteSpace=wrap;html=1;" parent="1" vertex="1">
          <mxGeometry x="275" y="305" width="110" height="50" as="geometry" />
        </mxCell>
        <mxCell id="O_Xi7BPwdJG2Z4PgSkja-32" style="edgeStyle=orthogonalEdgeStyle;rounded=0;orthogonalLoop=1;jettySize=auto;html=1;endArrow=ERmandOne;endFill=0;" parent="1" source="O_Xi7BPwdJG2Z4PgSkja-31" target="jKXEdhJsQPB0T8cpcpmc-5" edge="1">
          <mxGeometry relative="1" as="geometry" />
        </mxCell>
        <mxCell id="jKXEdhJsQPB0T8cpcpmc-5" value="Group" style="rounded=0;whiteSpace=wrap;html=1;" parent="1" vertex="1">
          <mxGeometry x="275" y="652" width="110" height="50" as="geometry" />
        </mxCell>
        <mxCell id="jKXEdhJsQPB0T8cpcpmc-6" value="Feedback" style="rounded=0;whiteSpace=wrap;html=1;" parent="1" vertex="1">
          <mxGeometry x="350" y="811" width="110" height="50" as="geometry" />
        </mxCell>
        <mxCell id="jKXEdhJsQPB0T8cpcpmc-7" value="Quiz" style="rounded=0;whiteSpace=wrap;html=1;" parent="1" vertex="1">
          <mxGeometry x="-359" y="752" width="110" height="50" as="geometry" />
        </mxCell>
        <mxCell id="jKXEdhJsQPB0T8cpcpmc-21" style="edgeStyle=orthogonalEdgeStyle;curved=1;rounded=0;orthogonalLoop=1;jettySize=auto;html=1;exitX=0;exitY=0.5;exitDx=0;exitDy=0;entryX=1;entryY=0.5;entryDx=0;entryDy=0;endArrow=ERzeroToMany;endFill=0;" parent="1" source="jKXEdhJsQPB0T8cpcpmc-10" target="jKXEdhJsQPB0T8cpcpmc-2" edge="1">
          <mxGeometry relative="1" as="geometry" />
        </mxCell>
        <mxCell id="jKXEdhJsQPB0T8cpcpmc-10" value="Manages" style="rhombus;whiteSpace=wrap;html=1;" parent="1" vertex="1">
          <mxGeometry x="-186" y="455" width="80" height="80" as="geometry" />
        </mxCell>
        <mxCell id="jKXEdhJsQPB0T8cpcpmc-27" style="edgeStyle=orthogonalEdgeStyle;curved=1;rounded=0;orthogonalLoop=1;jettySize=auto;html=1;exitX=1;exitY=0.5;exitDx=0;exitDy=0;entryX=0;entryY=0.5;entryDx=0;entryDy=0;endArrow=ERzeroToMany;endFill=0;" parent="1" source="jKXEdhJsQPB0T8cpcpmc-11" target="jKXEdhJsQPB0T8cpcpmc-4" edge="1">
          <mxGeometry relative="1" as="geometry" />
        </mxCell>
        <mxCell id="jKXEdhJsQPB0T8cpcpmc-11" value="Sends" style="rhombus;whiteSpace=wrap;html=1;" parent="1" vertex="1">
          <mxGeometry x="134" y="227" width="80" height="80" as="geometry" />
        </mxCell>
        <mxCell id="jKXEdhJsQPB0T8cpcpmc-40" style="edgeStyle=orthogonalEdgeStyle;curved=1;rounded=0;orthogonalLoop=1;jettySize=auto;html=1;exitX=0.5;exitY=1;exitDx=0;exitDy=0;entryX=0.5;entryY=0;entryDx=0;entryDy=0;endArrow=ERzeroToMany;endFill=0;" parent="1" source="jKXEdhJsQPB0T8cpcpmc-12" target="jKXEdhJsQPB0T8cpcpmc-7" edge="1">
          <mxGeometry relative="1" as="geometry" />
        </mxCell>
        <mxCell id="jKXEdhJsQPB0T8cpcpmc-12" value="Creates" style="rhombus;whiteSpace=wrap;html=1;" parent="1" vertex="1">
          <mxGeometry x="-344" y="607" width="79" height="80" as="geometry" />
        </mxCell>
        <mxCell id="O_Xi7BPwdJG2Z4PgSkja-25" style="edgeStyle=orthogonalEdgeStyle;rounded=0;orthogonalLoop=1;jettySize=auto;html=1;entryX=0.75;entryY=0;entryDx=0;entryDy=0;endArrow=ERmandOne;endFill=0;exitX=0.5;exitY=1;exitDx=0;exitDy=0;" parent="1" source="jKXEdhJsQPB0T8cpcpmc-13" target="jKXEdhJsQPB0T8cpcpmc-2" edge="1">
          <mxGeometry relative="1" as="geometry">
            <mxPoint x="-238.28571428571445" y="321.9523693266368" as="targetPoint" />
          </mxGeometry>
        </mxCell>
        <mxCell id="jKXEdhJsQPB0T8cpcpmc-13" value="Creates" style="rhombus;whiteSpace=wrap;html=1;" parent="1" vertex="1">
          <mxGeometry x="-345" y="265" width="80" height="80" as="geometry" />
        </mxCell>
        <mxCell id="jKXEdhJsQPB0T8cpcpmc-29" style="edgeStyle=orthogonalEdgeStyle;curved=1;rounded=0;orthogonalLoop=1;jettySize=auto;html=1;exitX=1;exitY=0.5;exitDx=0;exitDy=0;entryX=0;entryY=0.5;entryDx=0;entryDy=0;endArrow=ERzeroToMany;endFill=0;" parent="1" source="jKXEdhJsQPB0T8cpcpmc-14" target="jKXEdhJsQPB0T8cpcpmc-5" edge="1">
          <mxGeometry relative="1" as="geometry" />
        </mxCell>
        <mxCell id="jKXEdhJsQPB0T8cpcpmc-14" value="Creates" style="rhombus;whiteSpace=wrap;html=1;" parent="1" vertex="1">
          <mxGeometry x="134" y="575" width="80" height="80" as="geometry" />
        </mxCell>
        <mxCell id="jKXEdhJsQPB0T8cpcpmc-23" style="edgeStyle=orthogonalEdgeStyle;curved=1;rounded=0;orthogonalLoop=1;jettySize=auto;html=1;exitX=0;exitY=0.5;exitDx=0;exitDy=0;entryX=1;entryY=0.5;entryDx=0;entryDy=0;endArrow=ERzeroToMany;endFill=0;" parent="1" source="jKXEdhJsQPB0T8cpcpmc-15" target="jKXEdhJsQPB0T8cpcpmc-3" edge="1">
          <mxGeometry relative="1" as="geometry" />
        </mxCell>
        <mxCell id="jKXEdhJsQPB0T8cpcpmc-15" value="Generates" style="rhombus;whiteSpace=wrap;html=1;" parent="1" vertex="1">
          <mxGeometry x="-186" y="203" width="80" height="80" as="geometry" />
        </mxCell>
        <mxCell id="jKXEdhJsQPB0T8cpcpmc-36" style="edgeStyle=orthogonalEdgeStyle;curved=1;rounded=0;orthogonalLoop=1;jettySize=auto;html=1;exitX=0.5;exitY=1;exitDx=0;exitDy=0;entryX=0.5;entryY=0;entryDx=0;entryDy=0;endArrow=ERzeroToMany;endFill=0;" parent="1" source="VznqwO-0SXFQ0k9bwNJa-7" edge="1">
          <mxGeometry relative="1" as="geometry">
            <mxPoint x="-75" y="861" as="sourcePoint" />
            <mxPoint x="-135" y="902" as="targetPoint" />
          </mxGeometry>
        </mxCell>
        <mxCell id="jKXEdhJsQPB0T8cpcpmc-41" style="edgeStyle=orthogonalEdgeStyle;curved=1;rounded=0;orthogonalLoop=1;jettySize=auto;html=1;exitX=0;exitY=0.5;exitDx=0;exitDy=0;entryX=1;entryY=0.5;entryDx=0;entryDy=0;endArrow=ERzeroToMany;endFill=0;" parent="1" source="jKXEdhJsQPB0T8cpcpmc-17" target="jKXEdhJsQPB0T8cpcpmc-7" edge="1">
          <mxGeometry relative="1" as="geometry" />
        </mxCell>
        <mxCell id="jKXEdhJsQPB0T8cpcpmc-17" value="Generates" style="rhombus;whiteSpace=wrap;html=1;" parent="1" vertex="1">
          <mxGeometry x="-186" y="692" width="80" height="80" as="geometry" />
        </mxCell>
        <mxCell id="jKXEdhJsQPB0T8cpcpmc-42" style="edgeStyle=orthogonalEdgeStyle;curved=1;rounded=0;orthogonalLoop=1;jettySize=auto;html=1;exitX=1;exitY=0.5;exitDx=0;exitDy=0;entryX=0;entryY=0.5;entryDx=0;entryDy=0;endArrow=ERzeroToOne;endFill=0;" parent="1" source="jKXEdhJsQPB0T8cpcpmc-18" target="jKXEdhJsQPB0T8cpcpmc-6" edge="1">
          <mxGeometry relative="1" as="geometry" />
        </mxCell>
        <mxCell id="jKXEdhJsQPB0T8cpcpmc-18" value="Gives" style="rhombus;whiteSpace=wrap;html=1;" parent="1" vertex="1">
          <mxGeometry x="134" y="676" width="80" height="80" as="geometry" />
        </mxCell>
        <mxCell id="jKXEdhJsQPB0T8cpcpmc-35" style="edgeStyle=orthogonalEdgeStyle;curved=1;rounded=0;orthogonalLoop=1;jettySize=auto;html=1;exitX=0.5;exitY=1;exitDx=0;exitDy=0;entryX=0.5;entryY=0;entryDx=0;entryDy=0;endArrow=ERzeroToMany;endFill=0;" parent="1" source="VznqwO-0SXFQ0k9bwNJa-6" edge="1">
          <mxGeometry relative="1" as="geometry">
            <mxPoint x="102" y="861" as="sourcePoint" />
            <mxPoint x="165" y="909" as="targetPoint" />
          </mxGeometry>
        </mxCell>
        <mxCell id="jKXEdhJsQPB0T8cpcpmc-39" style="edgeStyle=orthogonalEdgeStyle;curved=1;rounded=0;orthogonalLoop=1;jettySize=auto;html=1;exitX=0.5;exitY=0;exitDx=0;exitDy=0;entryX=0.578;entryY=1.038;entryDx=0;entryDy=0;endArrow=ERmandOne;endFill=0;entryPerimeter=0;" parent="1" source="jKXEdhJsQPB0T8cpcpmc-13" target="jKXEdhJsQPB0T8cpcpmc-3" edge="1">
          <mxGeometry relative="1" as="geometry">
            <Array as="points">
              <mxPoint x="-306" y="231" />
              <mxPoint x="-324" y="231" />
            </Array>
          </mxGeometry>
        </mxCell>
        <mxCell id="jKXEdhJsQPB0T8cpcpmc-43" value="&lt;u&gt;User_ID&lt;/u&gt;" style="ellipse;whiteSpace=wrap;html=1;" parent="1" vertex="1">
          <mxGeometry x="-196" y="19" width="90" height="46" as="geometry" />
        </mxCell>
        <mxCell id="jKXEdhJsQPB0T8cpcpmc-45" value="Email" style="ellipse;whiteSpace=wrap;html=1;" parent="1" vertex="1">
          <mxGeometry x="-78" y="11" width="90" height="46" as="geometry" />
        </mxCell>
        <mxCell id="jKXEdhJsQPB0T8cpcpmc-46" value="Password" style="ellipse;whiteSpace=wrap;html=1;" parent="1" vertex="1">
          <mxGeometry x="22" y="11" width="90" height="46" as="geometry" />
        </mxCell>
        <mxCell id="jKXEdhJsQPB0T8cpcpmc-49" value="" style="endArrow=none;html=1;rounded=0;curved=1;exitX=1;exitY=1;exitDx=0;exitDy=0;entryX=0;entryY=0;entryDx=0;entryDy=0;" parent="1" source="jKXEdhJsQPB0T8cpcpmc-43" target="jKXEdhJsQPB0T8cpcpmc-1" edge="1">
          <mxGeometry width="50" height="50" relative="1" as="geometry">
            <mxPoint x="-320" y="211" as="sourcePoint" />
            <mxPoint x="-35" y="147" as="targetPoint" />
          </mxGeometry>
        </mxCell>
        <mxCell id="jKXEdhJsQPB0T8cpcpmc-51" value="" style="endArrow=none;html=1;rounded=0;curved=1;exitX=0.5;exitY=1;exitDx=0;exitDy=0;entryX=0.25;entryY=0;entryDx=0;entryDy=0;" parent="1" source="jKXEdhJsQPB0T8cpcpmc-45" target="jKXEdhJsQPB0T8cpcpmc-1" edge="1">
          <mxGeometry width="50" height="50" relative="1" as="geometry">
            <mxPoint x="-21" y="80" as="sourcePoint" />
            <mxPoint y="121" as="targetPoint" />
          </mxGeometry>
        </mxCell>
        <mxCell id="jKXEdhJsQPB0T8cpcpmc-52" value="" style="endArrow=none;html=1;rounded=0;curved=1;exitX=0.5;exitY=1;exitDx=0;exitDy=0;entryX=0.75;entryY=0;entryDx=0;entryDy=0;" parent="1" source="jKXEdhJsQPB0T8cpcpmc-46" target="jKXEdhJsQPB0T8cpcpmc-1" edge="1">
          <mxGeometry width="50" height="50" relative="1" as="geometry">
            <mxPoint x="30.899999999999977" y="55.349999999999994" as="sourcePoint" />
            <mxPoint x="30" y="121" as="targetPoint" />
          </mxGeometry>
        </mxCell>
        <mxCell id="jKXEdhJsQPB0T8cpcpmc-74" value="&lt;u&gt;QuizID&lt;/u&gt;" style="ellipse;whiteSpace=wrap;html=1;" parent="1" vertex="1">
          <mxGeometry x="-627" y="702" width="90" height="46" as="geometry" />
        </mxCell>
        <mxCell id="jKXEdhJsQPB0T8cpcpmc-75" value="difficulty" style="ellipse;whiteSpace=wrap;html=1;" parent="1" vertex="1">
          <mxGeometry x="-636" y="765" width="90" height="46" as="geometry" />
        </mxCell>
        <mxCell id="jKXEdhJsQPB0T8cpcpmc-76" value="User_ID" style="ellipse;whiteSpace=wrap;html=1;" parent="1" vertex="1">
          <mxGeometry x="-512" y="866" width="90" height="46" as="geometry" />
        </mxCell>
        <mxCell id="jKXEdhJsQPB0T8cpcpmc-77" value="Material_ID" style="ellipse;whiteSpace=wrap;html=1;" parent="1" vertex="1">
          <mxGeometry x="-595" y="828" width="90" height="46" as="geometry" />
        </mxCell>
        <mxCell id="jKXEdhJsQPB0T8cpcpmc-82" value="Time Spent" style="ellipse;whiteSpace=wrap;html=1;" parent="1" vertex="1">
          <mxGeometry x="-191" y="1031" width="90" height="46" as="geometry" />
        </mxCell>
        <mxCell id="jKXEdhJsQPB0T8cpcpmc-83" value="Report_Number" style="ellipse;whiteSpace=wrap;html=1;" parent="1" vertex="1">
          <mxGeometry x="-399" y="967" width="101" height="46" as="geometry" />
        </mxCell>
        <mxCell id="jKXEdhJsQPB0T8cpcpmc-84" value="Reward_Number" style="ellipse;whiteSpace=wrap;html=1;" parent="1" vertex="1">
          <mxGeometry x="-5" y="978" width="107" height="46" as="geometry" />
        </mxCell>
        <mxCell id="jKXEdhJsQPB0T8cpcpmc-88" value="Type" style="ellipse;whiteSpace=wrap;html=1;" parent="1" vertex="1">
          <mxGeometry x="203" y="1020" width="90" height="46" as="geometry" />
        </mxCell>
        <mxCell id="jKXEdhJsQPB0T8cpcpmc-89" value="Value" style="ellipse;whiteSpace=wrap;html=1;" parent="1" vertex="1">
          <mxGeometry x="295" y="978" width="90" height="46" as="geometry" />
        </mxCell>
        <mxCell id="jKXEdhJsQPB0T8cpcpmc-90" value="&lt;u&gt;Feedback_ID&lt;/u&gt;" style="ellipse;whiteSpace=wrap;html=1;" parent="1" vertex="1">
          <mxGeometry x="550" y="845" width="90" height="46" as="geometry" />
        </mxCell>
        <mxCell id="jKXEdhJsQPB0T8cpcpmc-91" value="User_ID" style="ellipse;whiteSpace=wrap;html=1;" parent="1" vertex="1">
          <mxGeometry x="550" y="921" width="90" height="46" as="geometry" />
        </mxCell>
        <mxCell id="jKXEdhJsQPB0T8cpcpmc-92" value="Content" style="ellipse;whiteSpace=wrap;html=1;" parent="1" vertex="1">
          <mxGeometry x="492" y="985" width="90" height="46" as="geometry" />
        </mxCell>
        <mxCell id="jKXEdhJsQPB0T8cpcpmc-93" value="Submission Date" style="ellipse;whiteSpace=wrap;html=1;" parent="1" vertex="1">
          <mxGeometry x="406" y="1020" width="90" height="46" as="geometry" />
        </mxCell>
        <mxCell id="jKXEdhJsQPB0T8cpcpmc-95" value="&lt;u&gt;Group_ID&lt;/u&gt;" style="ellipse;whiteSpace=wrap;html=1;" parent="1" vertex="1">
          <mxGeometry x="513" y="748" width="90" height="46" as="geometry" />
        </mxCell>
        <mxCell id="jKXEdhJsQPB0T8cpcpmc-96" value="name" style="ellipse;whiteSpace=wrap;html=1;" parent="1" vertex="1">
          <mxGeometry x="527" y="682" width="90" height="46" as="geometry" />
        </mxCell>
        <mxCell id="jKXEdhJsQPB0T8cpcpmc-98" value="Content" style="ellipse;whiteSpace=wrap;html=1;" parent="1" vertex="1">
          <mxGeometry x="524" y="500" width="90" height="46" as="geometry" />
        </mxCell>
        <mxCell id="jKXEdhJsQPB0T8cpcpmc-99" value="Timestamp" style="ellipse;whiteSpace=wrap;html=1;" parent="1" vertex="1">
          <mxGeometry x="437" y="537" width="90" height="46" as="geometry" />
        </mxCell>
        <mxCell id="jKXEdhJsQPB0T8cpcpmc-100" value="&lt;u&gt;Message_ID&lt;/u&gt;" style="ellipse;whiteSpace=wrap;html=1;" parent="1" vertex="1">
          <mxGeometry x="503" y="323" width="90" height="46" as="geometry" />
        </mxCell>
        <mxCell id="jKXEdhJsQPB0T8cpcpmc-102" value="Group_ID" style="ellipse;whiteSpace=wrap;html=1;" parent="1" vertex="1">
          <mxGeometry x="539" y="440" width="90" height="46" as="geometry" />
        </mxCell>
        <mxCell id="jKXEdhJsQPB0T8cpcpmc-103" value="" style="endArrow=none;html=1;rounded=0;curved=1;entryX=0;entryY=0.25;entryDx=0;entryDy=0;exitX=1;exitY=0.5;exitDx=0;exitDy=0;" parent="1" source="jKXEdhJsQPB0T8cpcpmc-74" target="jKXEdhJsQPB0T8cpcpmc-7" edge="1">
          <mxGeometry width="50" height="50" relative="1" as="geometry">
            <mxPoint x="-445.18" y="838" as="sourcePoint" />
            <mxPoint x="-344.18" y="741" as="targetPoint" />
          </mxGeometry>
        </mxCell>
        <mxCell id="jKXEdhJsQPB0T8cpcpmc-104" value="" style="endArrow=none;html=1;rounded=0;curved=1;entryX=0;entryY=0.75;entryDx=0;entryDy=0;exitX=1;exitY=0.5;exitDx=0;exitDy=0;" parent="1" source="jKXEdhJsQPB0T8cpcpmc-75" target="jKXEdhJsQPB0T8cpcpmc-7" edge="1">
          <mxGeometry width="50" height="50" relative="1" as="geometry">
            <mxPoint x="-410" y="797" as="sourcePoint" />
            <mxPoint x="-380" y="787" as="targetPoint" />
          </mxGeometry>
        </mxCell>
        <mxCell id="jKXEdhJsQPB0T8cpcpmc-105" value="" style="endArrow=none;html=1;rounded=0;curved=1;entryX=0;entryY=1;entryDx=0;entryDy=0;exitX=1;exitY=0;exitDx=0;exitDy=0;" parent="1" source="jKXEdhJsQPB0T8cpcpmc-77" target="jKXEdhJsQPB0T8cpcpmc-7" edge="1">
          <mxGeometry width="50" height="50" relative="1" as="geometry">
            <mxPoint x="-470" y="784.5" as="sourcePoint" />
            <mxPoint x="-350" y="768.5" as="targetPoint" />
          </mxGeometry>
        </mxCell>
        <mxCell id="jKXEdhJsQPB0T8cpcpmc-106" value="" style="endArrow=none;html=1;rounded=0;curved=1;entryX=0.25;entryY=1;entryDx=0;entryDy=0;" parent="1" target="jKXEdhJsQPB0T8cpcpmc-7" edge="1">
          <mxGeometry width="50" height="50" relative="1" as="geometry">
            <mxPoint x="-450" y="867" as="sourcePoint" />
            <mxPoint x="-315" y="764" as="targetPoint" />
          </mxGeometry>
        </mxCell>
        <mxCell id="jKXEdhJsQPB0T8cpcpmc-113" value="" style="endArrow=none;html=1;rounded=0;curved=1;exitX=1;exitY=0;exitDx=0;exitDy=0;entryX=0;entryY=1;entryDx=0;entryDy=0;" parent="1" source="jKXEdhJsQPB0T8cpcpmc-83" target="VznqwO-0SXFQ0k9bwNJa-8" edge="1">
          <mxGeometry width="50" height="50" relative="1" as="geometry">
            <mxPoint x="-275" y="1005" as="sourcePoint" />
            <mxPoint x="-190" y="951" as="targetPoint" />
          </mxGeometry>
        </mxCell>
        <mxCell id="jKXEdhJsQPB0T8cpcpmc-114" value="" style="endArrow=none;html=1;rounded=0;curved=1;exitX=0.5;exitY=0;exitDx=0;exitDy=0;entryX=0.5;entryY=1;entryDx=0;entryDy=0;" parent="1" source="jKXEdhJsQPB0T8cpcpmc-82" target="VznqwO-0SXFQ0k9bwNJa-8" edge="1">
          <mxGeometry width="50" height="50" relative="1" as="geometry">
            <mxPoint x="-245" y="1036.5" as="sourcePoint" />
            <mxPoint x="-98" y="953" as="targetPoint" />
          </mxGeometry>
        </mxCell>
        <mxCell id="jKXEdhJsQPB0T8cpcpmc-115" value="" style="endArrow=none;html=1;rounded=0;curved=1;exitX=0.5;exitY=0;exitDx=0;exitDy=0;" parent="1" source="jKXEdhJsQPB0T8cpcpmc-84" target="VznqwO-0SXFQ0k9bwNJa-4" edge="1">
          <mxGeometry width="50" height="50" relative="1" as="geometry">
            <mxPoint x="-130" y="1045" as="sourcePoint" />
            <mxPoint x="123.41999999999985" y="960.45" as="targetPoint" />
          </mxGeometry>
        </mxCell>
        <mxCell id="jKXEdhJsQPB0T8cpcpmc-118" value="" style="endArrow=none;html=1;rounded=0;curved=1;exitX=0.319;exitY=0.039;exitDx=0;exitDy=0;entryX=0.808;entryY=0.947;entryDx=0;entryDy=0;entryPerimeter=0;exitPerimeter=0;" parent="1" source="jKXEdhJsQPB0T8cpcpmc-88" target="VznqwO-0SXFQ0k9bwNJa-4" edge="1">
          <mxGeometry width="50" height="50" relative="1" as="geometry">
            <mxPoint x="222" y="1045" as="sourcePoint" />
            <mxPoint x="220" y="946.5" as="targetPoint" />
          </mxGeometry>
        </mxCell>
        <mxCell id="jKXEdhJsQPB0T8cpcpmc-119" value="" style="endArrow=none;html=1;rounded=0;curved=1;exitX=0;exitY=0;exitDx=0;exitDy=0;entryX=1;entryY=1;entryDx=0;entryDy=0;" parent="1" source="jKXEdhJsQPB0T8cpcpmc-89" target="VznqwO-0SXFQ0k9bwNJa-4" edge="1">
          <mxGeometry width="50" height="50" relative="1" as="geometry">
            <mxPoint x="297" y="987" as="sourcePoint" />
            <mxPoint x="220" y="921.5" as="targetPoint" />
          </mxGeometry>
        </mxCell>
        <mxCell id="jKXEdhJsQPB0T8cpcpmc-121" value="" style="endArrow=none;html=1;rounded=0;curved=1;exitX=0.5;exitY=0;exitDx=0;exitDy=0;entryX=0.5;entryY=1;entryDx=0;entryDy=0;" parent="1" source="jKXEdhJsQPB0T8cpcpmc-93" target="jKXEdhJsQPB0T8cpcpmc-6" edge="1">
          <mxGeometry width="50" height="50" relative="1" as="geometry">
            <mxPoint x="437" y="975" as="sourcePoint" />
            <mxPoint x="410" y="871" as="targetPoint" />
          </mxGeometry>
        </mxCell>
        <mxCell id="jKXEdhJsQPB0T8cpcpmc-122" value="" style="endArrow=none;html=1;rounded=0;curved=1;exitX=0.316;exitY=0.119;exitDx=0;exitDy=0;entryX=1;entryY=1;entryDx=0;entryDy=0;exitPerimeter=0;" parent="1" source="jKXEdhJsQPB0T8cpcpmc-92" edge="1">
          <mxGeometry width="50" height="50" relative="1" as="geometry">
            <mxPoint x="487.30571530025736" y="991.6726412152841" as="sourcePoint" />
            <mxPoint x="442" y="861" as="targetPoint" />
          </mxGeometry>
        </mxCell>
        <mxCell id="jKXEdhJsQPB0T8cpcpmc-123" value="" style="endArrow=none;html=1;rounded=0;curved=1;exitX=0;exitY=0.5;exitDx=0;exitDy=0;entryX=1;entryY=0.75;entryDx=0;entryDy=0;" parent="1" source="jKXEdhJsQPB0T8cpcpmc-91" target="jKXEdhJsQPB0T8cpcpmc-6" edge="1">
          <mxGeometry width="50" height="50" relative="1" as="geometry">
            <mxPoint x="559.86" y="934.62" as="sourcePoint" />
            <mxPoint x="463.86" y="853.62" as="targetPoint" />
          </mxGeometry>
        </mxCell>
        <mxCell id="jKXEdhJsQPB0T8cpcpmc-124" value="" style="endArrow=none;html=1;rounded=0;curved=1;exitX=0;exitY=0.5;exitDx=0;exitDy=0;entryX=1;entryY=0.25;entryDx=0;entryDy=0;" parent="1" source="jKXEdhJsQPB0T8cpcpmc-90" target="jKXEdhJsQPB0T8cpcpmc-6" edge="1">
          <mxGeometry width="50" height="50" relative="1" as="geometry">
            <mxPoint x="540" y="871" as="sourcePoint" />
            <mxPoint x="460" y="810" as="targetPoint" />
          </mxGeometry>
        </mxCell>
        <mxCell id="jKXEdhJsQPB0T8cpcpmc-125" value="" style="endArrow=none;html=1;rounded=0;curved=1;exitX=0;exitY=0;exitDx=0;exitDy=0;entryX=0.819;entryY=1.031;entryDx=0;entryDy=0;entryPerimeter=0;" parent="1" source="jKXEdhJsQPB0T8cpcpmc-99" target="jKXEdhJsQPB0T8cpcpmc-4" edge="1">
          <mxGeometry width="50" height="50" relative="1" as="geometry">
            <mxPoint x="338.5" y="571.5" as="sourcePoint" />
            <mxPoint x="285.5" y="561.5" as="targetPoint" />
          </mxGeometry>
        </mxCell>
        <mxCell id="jKXEdhJsQPB0T8cpcpmc-126" value="" style="endArrow=none;html=1;rounded=0;curved=1;exitX=0;exitY=0.5;exitDx=0;exitDy=0;entryX=1;entryY=1;entryDx=0;entryDy=0;" parent="1" source="jKXEdhJsQPB0T8cpcpmc-98" target="jKXEdhJsQPB0T8cpcpmc-4" edge="1">
          <mxGeometry width="50" height="50" relative="1" as="geometry">
            <mxPoint x="449.65" y="582.35" as="sourcePoint" />
            <mxPoint x="368.65" y="501.35" as="targetPoint" />
          </mxGeometry>
        </mxCell>
        <mxCell id="jKXEdhJsQPB0T8cpcpmc-128" value="" style="endArrow=none;html=1;rounded=0;curved=1;exitX=0;exitY=0.5;exitDx=0;exitDy=0;entryX=1;entryY=0.25;entryDx=0;entryDy=0;" parent="1" source="jKXEdhJsQPB0T8cpcpmc-96" edge="1">
          <mxGeometry width="50" height="50" relative="1" as="geometry">
            <mxPoint x="531.8324688486582" y="699.9162344243293" as="sourcePoint" />
            <mxPoint x="384" y="677.5" as="targetPoint" />
          </mxGeometry>
        </mxCell>
        <mxCell id="jKXEdhJsQPB0T8cpcpmc-129" value="" style="endArrow=none;html=1;rounded=0;curved=1;exitX=0.033;exitY=0.299;exitDx=0;exitDy=0;entryX=0.75;entryY=1;entryDx=0;entryDy=0;exitPerimeter=0;" parent="1" source="jKXEdhJsQPB0T8cpcpmc-95" target="jKXEdhJsQPB0T8cpcpmc-5" edge="1">
          <mxGeometry width="50" height="50" relative="1" as="geometry">
            <mxPoint x="456.65" y="556.65" as="sourcePoint" />
            <mxPoint x="360.65" y="583.65" as="targetPoint" />
          </mxGeometry>
        </mxCell>
        <mxCell id="jKXEdhJsQPB0T8cpcpmc-130" value="" style="endArrow=none;html=1;rounded=0;curved=1;exitX=0;exitY=0.5;exitDx=0;exitDy=0;entryX=1;entryY=0.5;entryDx=0;entryDy=0;" parent="1" source="jKXEdhJsQPB0T8cpcpmc-102" target="jKXEdhJsQPB0T8cpcpmc-4" edge="1">
          <mxGeometry width="50" height="50" relative="1" as="geometry">
            <mxPoint x="338.57" y="360.82" as="sourcePoint" />
            <mxPoint x="285.57" y="420.82" as="targetPoint" />
          </mxGeometry>
        </mxCell>
        <mxCell id="jKXEdhJsQPB0T8cpcpmc-131" value="" style="endArrow=none;html=1;rounded=0;curved=1;exitX=0;exitY=0.5;exitDx=0;exitDy=0;entryX=1;entryY=0.25;entryDx=0;entryDy=0;" parent="1" source="jKXEdhJsQPB0T8cpcpmc-101" target="jKXEdhJsQPB0T8cpcpmc-4" edge="1">
          <mxGeometry width="50" height="50" relative="1" as="geometry">
            <mxPoint x="587.3057153003333" y="412.327358784677" as="sourcePoint" />
            <mxPoint x="385" y="383" as="targetPoint" />
          </mxGeometry>
        </mxCell>
        <mxCell id="jKXEdhJsQPB0T8cpcpmc-132" value="" style="endArrow=none;html=1;rounded=0;curved=1;exitX=0;exitY=0.5;exitDx=0;exitDy=0;entryX=1;entryY=0;entryDx=0;entryDy=0;" parent="1" source="jKXEdhJsQPB0T8cpcpmc-100" target="jKXEdhJsQPB0T8cpcpmc-4" edge="1">
          <mxGeometry width="50" height="50" relative="1" as="geometry">
            <mxPoint x="326" y="215" as="sourcePoint" />
            <mxPoint x="232" y="246" as="targetPoint" />
          </mxGeometry>
        </mxCell>
        <mxCell id="t7ayN9mDKsQhdJTZLksP-2" value="" style="endArrow=none;html=1;rounded=0;curved=1;exitX=0.5;exitY=0;exitDx=0;exitDy=0;entryX=0.42;entryY=1.046;entryDx=0;entryDy=0;entryPerimeter=0;" parent="1" source="t7ayN9mDKsQhdJTZLksP-13" target="VznqwO-0SXFQ0k9bwNJa-4" edge="1">
          <mxGeometry width="50" height="50" relative="1" as="geometry">
            <mxPoint x="15" y="980" as="sourcePoint" />
            <mxPoint x="161" y="951" as="targetPoint" />
          </mxGeometry>
        </mxCell>
        <mxCell id="t7ayN9mDKsQhdJTZLksP-13" value="Earned Date" style="ellipse;whiteSpace=wrap;html=1;" parent="1" vertex="1">
          <mxGeometry x="100" y="1024" width="90" height="46" as="geometry" />
        </mxCell>
        <mxCell id="t7ayN9mDKsQhdJTZLksP-41" value="" style="swimlane;startSize=0;movable=0;resizable=0;rotatable=0;deletable=0;editable=0;locked=1;connectable=0;" parent="1" vertex="1">
          <mxGeometry x="-700" width="1380" height="1100" as="geometry" />
        </mxCell>
        <mxCell id="O_Xi7BPwdJG2Z4PgSkja-4" value="Thread" style="rounded=0;whiteSpace=wrap;html=1;" parent="1" vertex="1">
          <mxGeometry x="269.5" y="182" width="121" height="50" as="geometry" />
        </mxCell>
        <mxCell id="O_Xi7BPwdJG2Z4PgSkja-5" value="&lt;u&gt;Thread_ID&lt;/u&gt;" style="ellipse;whiteSpace=wrap;html=1;" parent="1" vertex="1">
          <mxGeometry x="355" y="28" width="90" height="46" as="geometry" />
        </mxCell>
        <mxCell id="O_Xi7BPwdJG2Z4PgSkja-6" value="User_ID" style="ellipse;whiteSpace=wrap;html=1;" parent="1" vertex="1">
          <mxGeometry x="566" y="135" width="90" height="46" as="geometry" />
        </mxCell>
        <mxCell id="O_Xi7BPwdJG2Z4PgSkja-7" value="Post Date" style="ellipse;whiteSpace=wrap;html=1;" parent="1" vertex="1">
          <mxGeometry x="449" y="47" width="90" height="46" as="geometry" />
        </mxCell>
        <mxCell id="O_Xi7BPwdJG2Z4PgSkja-8" value="content" style="ellipse;whiteSpace=wrap;html=1;" parent="1" vertex="1">
          <mxGeometry x="523" y="81" width="90" height="46" as="geometry" />
        </mxCell>
        <mxCell id="O_Xi7BPwdJG2Z4PgSkja-9" value="Likes" style="ellipse;whiteSpace=wrap;html=1;" parent="1" vertex="1">
          <mxGeometry x="573" y="249" width="90" height="46" as="geometry" />
        </mxCell>
        <mxCell id="O_Xi7BPwdJG2Z4PgSkja-12" value="" style="endArrow=none;html=1;rounded=0;curved=1;entryX=0.354;entryY=-0.024;entryDx=0;entryDy=0;exitX=0.297;exitY=1.02;exitDx=0;exitDy=0;entryPerimeter=0;exitPerimeter=0;" parent="1" source="O_Xi7BPwdJG2Z4PgSkja-5" target="O_Xi7BPwdJG2Z4PgSkja-4" edge="1">
          <mxGeometry width="50" height="50" relative="1" as="geometry">
            <mxPoint x="184.82" y="-86" as="sourcePoint" />
            <mxPoint x="285.82" y="-183" as="targetPoint" />
          </mxGeometry>
        </mxCell>
        <mxCell id="O_Xi7BPwdJG2Z4PgSkja-13" value="" style="endArrow=none;html=1;rounded=0;curved=1;entryX=1;entryY=0.5;entryDx=0;entryDy=0;exitX=0.056;exitY=0.685;exitDx=0;exitDy=0;exitPerimeter=0;" parent="1" source="O_Xi7BPwdJG2Z4PgSkja-6" target="O_Xi7BPwdJG2Z4PgSkja-4" edge="1">
          <mxGeometry width="50" height="50" relative="1" as="geometry">
            <mxPoint x="220" y="-127" as="sourcePoint" />
            <mxPoint x="250" y="-137" as="targetPoint" />
          </mxGeometry>
        </mxCell>
        <mxCell id="O_Xi7BPwdJG2Z4PgSkja-14" value="" style="endArrow=none;html=1;rounded=0;curved=1;entryX=1;entryY=0.25;entryDx=0;entryDy=0;exitX=0.241;exitY=0.957;exitDx=0;exitDy=0;exitPerimeter=0;" parent="1" source="O_Xi7BPwdJG2Z4PgSkja-8" target="O_Xi7BPwdJG2Z4PgSkja-4" edge="1">
          <mxGeometry width="50" height="50" relative="1" as="geometry">
            <mxPoint x="160" y="-139.5" as="sourcePoint" />
            <mxPoint x="280" y="-155.5" as="targetPoint" />
          </mxGeometry>
        </mxCell>
        <mxCell id="O_Xi7BPwdJG2Z4PgSkja-15" value="" style="endArrow=none;html=1;rounded=0;curved=1;entryX=0.75;entryY=0;entryDx=0;entryDy=0;exitX=0.5;exitY=1;exitDx=0;exitDy=0;" parent="1" source="O_Xi7BPwdJG2Z4PgSkja-7" target="O_Xi7BPwdJG2Z4PgSkja-4" edge="1">
          <mxGeometry width="50" height="50" relative="1" as="geometry">
            <mxPoint x="384.27000000000044" y="104.37800000000004" as="sourcePoint" />
            <mxPoint x="372.866" y="178.04999999999995" as="targetPoint" />
          </mxGeometry>
        </mxCell>
        <mxCell id="O_Xi7BPwdJG2Z4PgSkja-16" value="" style="endArrow=none;html=1;rounded=0;curved=1;entryX=1;entryY=0.75;entryDx=0;entryDy=0;exitX=0;exitY=0.5;exitDx=0;exitDy=0;" parent="1" source="VznqwO-0SXFQ0k9bwNJa-37" target="O_Xi7BPwdJG2Z4PgSkja-4" edge="1">
          <mxGeometry width="50" height="50" relative="1" as="geometry">
            <mxPoint x="578.8600000000001" y="226.23400000000004" as="sourcePoint" />
            <mxPoint x="341.18" y="-169.37" as="targetPoint" />
          </mxGeometry>
        </mxCell>
        <mxCell id="O_Xi7BPwdJG2Z4PgSkja-18" value="" style="endArrow=none;html=1;rounded=0;curved=1;exitX=0;exitY=0.5;exitDx=0;exitDy=0;" parent="1" edge="1">
          <mxGeometry width="50" height="50" relative="1" as="geometry">
            <mxPoint x="574" y="270" as="sourcePoint" />
            <mxPoint x="388" y="232" as="targetPoint" />
          </mxGeometry>
        </mxCell>
        <mxCell id="O_Xi7BPwdJG2Z4PgSkja-21" style="edgeStyle=orthogonalEdgeStyle;rounded=0;orthogonalLoop=1;jettySize=auto;html=1;entryX=0.75;entryY=1;entryDx=0;entryDy=0;endArrow=ERmandOne;endFill=0;" parent="1" source="jKXEdhJsQPB0T8cpcpmc-12" target="jKXEdhJsQPB0T8cpcpmc-2" edge="1">
          <mxGeometry relative="1" as="geometry" />
        </mxCell>
        <mxCell id="O_Xi7BPwdJG2Z4PgSkja-27" style="edgeStyle=orthogonalEdgeStyle;rounded=0;orthogonalLoop=1;jettySize=auto;html=1;entryX=1;entryY=0.5;entryDx=0;entryDy=0;endArrow=ERmandOne;endFill=0;" parent="1" source="O_Xi7BPwdJG2Z4PgSkja-26" target="jKXEdhJsQPB0T8cpcpmc-1" edge="1">
          <mxGeometry relative="1" as="geometry" />
        </mxCell>
        <mxCell id="O_Xi7BPwdJG2Z4PgSkja-26" value="Posts" style="rhombus;whiteSpace=wrap;html=1;" parent="1" vertex="1">
          <mxGeometry x="134" y="126" width="80" height="80" as="geometry" />
        </mxCell>
        <mxCell id="O_Xi7BPwdJG2Z4PgSkja-33" style="edgeStyle=orthogonalEdgeStyle;rounded=0;orthogonalLoop=1;jettySize=auto;html=1;endArrow=ERzeroToMany;endFill=0;" parent="1" source="O_Xi7BPwdJG2Z4PgSkja-31" target="jKXEdhJsQPB0T8cpcpmc-4" edge="1">
          <mxGeometry relative="1" as="geometry" />
        </mxCell>
        <mxCell id="O_Xi7BPwdJG2Z4PgSkja-31" value="Contains" style="rhombus;whiteSpace=wrap;html=1;" parent="1" vertex="1">
          <mxGeometry x="290" y="409" width="80" height="80" as="geometry" />
        </mxCell>
        <mxCell id="O_Xi7BPwdJG2Z4PgSkja-34" style="edgeStyle=orthogonalEdgeStyle;curved=1;rounded=0;orthogonalLoop=1;jettySize=auto;html=1;exitX=1;exitY=0.5;exitDx=0;exitDy=0;entryX=0;entryY=0.5;entryDx=0;entryDy=0;endArrow=ERzeroToMany;endFill=0;" parent="1" source="O_Xi7BPwdJG2Z4PgSkja-26" target="O_Xi7BPwdJG2Z4PgSkja-4" edge="1">
          <mxGeometry relative="1" as="geometry">
            <mxPoint x="179" y="172" as="sourcePoint" />
            <mxPoint x="247" y="240" as="targetPoint" />
          </mxGeometry>
        </mxCell>
        <mxCell id="jKXEdhJsQPB0T8cpcpmc-3" value="Summary" style="rounded=0;whiteSpace=wrap;html=1;" parent="1" vertex="1">
          <mxGeometry x="-369" y="135" width="110" height="50" as="geometry" />
        </mxCell>
        <mxCell id="jKXEdhJsQPB0T8cpcpmc-61" value="&lt;u&gt;Summary_ID&lt;/u&gt;" style="ellipse;whiteSpace=wrap;html=1;" parent="1" vertex="1">
          <mxGeometry x="-587" y="19" width="90" height="46" as="geometry" />
        </mxCell>
        <mxCell id="jKXEdhJsQPB0T8cpcpmc-62" value="Text" style="ellipse;whiteSpace=wrap;html=1;" parent="1" vertex="1">
          <mxGeometry x="-636" y="81" width="90" height="46" as="geometry" />
        </mxCell>
        <mxCell id="jKXEdhJsQPB0T8cpcpmc-64" value="Material_ID" style="ellipse;whiteSpace=wrap;html=1;" parent="1" vertex="1">
          <mxGeometry x="-639" y="212" width="90" height="46" as="geometry" />
        </mxCell>
        <mxCell id="jKXEdhJsQPB0T8cpcpmc-70" value="" style="endArrow=none;html=1;rounded=0;curved=1;entryX=0;entryY=0.25;entryDx=0;entryDy=0;exitX=1;exitY=0.5;exitDx=0;exitDy=0;" parent="1" source="jKXEdhJsQPB0T8cpcpmc-61" target="jKXEdhJsQPB0T8cpcpmc-3" edge="1">
          <mxGeometry width="50" height="50" relative="1" as="geometry">
            <mxPoint x="-411" y="168.5" as="sourcePoint" />
            <mxPoint x="-286" y="98.5" as="targetPoint" />
          </mxGeometry>
        </mxCell>
        <mxCell id="jKXEdhJsQPB0T8cpcpmc-71" value="" style="endArrow=none;html=1;rounded=0;curved=1;entryX=0;entryY=0.5;entryDx=0;entryDy=0;exitX=1;exitY=0.5;exitDx=0;exitDy=0;" parent="1" source="jKXEdhJsQPB0T8cpcpmc-62" target="jKXEdhJsQPB0T8cpcpmc-3" edge="1">
          <mxGeometry width="50" height="50" relative="1" as="geometry">
            <mxPoint x="-411" y="129" as="sourcePoint" />
            <mxPoint x="-271" y="149" as="targetPoint" />
          </mxGeometry>
        </mxCell>
        <mxCell id="jKXEdhJsQPB0T8cpcpmc-72" value="" style="endArrow=none;html=1;rounded=0;curved=1;entryX=0;entryY=0.75;entryDx=0;entryDy=0;exitX=1;exitY=0.5;exitDx=0;exitDy=0;" parent="1" target="jKXEdhJsQPB0T8cpcpmc-3" edge="1">
          <mxGeometry width="50" height="50" relative="1" as="geometry">
            <mxPoint x="-559" y="166" as="sourcePoint" />
            <mxPoint x="-259" y="147" as="targetPoint" />
          </mxGeometry>
        </mxCell>
        <mxCell id="jKXEdhJsQPB0T8cpcpmc-73" value="" style="endArrow=none;html=1;rounded=0;curved=1;exitX=1;exitY=0.5;exitDx=0;exitDy=0;entryX=0;entryY=1;entryDx=0;entryDy=0;" parent="1" source="jKXEdhJsQPB0T8cpcpmc-64" target="jKXEdhJsQPB0T8cpcpmc-3" edge="1">
          <mxGeometry width="50" height="50" relative="1" as="geometry">
            <mxPoint x="-430.86" y="233.5" as="sourcePoint" />
            <mxPoint x="-372" y="184" as="targetPoint" />
          </mxGeometry>
        </mxCell>
        <mxCell id="jKXEdhJsQPB0T8cpcpmc-2" value="StudyMaterial" style="rounded=0;whiteSpace=wrap;html=1;" parent="1" vertex="1">
          <mxGeometry x="-387" y="470" width="110" height="50" as="geometry" />
        </mxCell>
        <mxCell id="jKXEdhJsQPB0T8cpcpmc-55" value="&lt;u&gt;Material_ID&lt;/u&gt;" style="ellipse;whiteSpace=wrap;html=1;" parent="1" vertex="1">
          <mxGeometry x="-527" y="370" width="90" height="46" as="geometry" />
        </mxCell>
        <mxCell id="jKXEdhJsQPB0T8cpcpmc-56" value="Title" style="ellipse;whiteSpace=wrap;html=1;" parent="1" vertex="1">
          <mxGeometry x="-619" y="405" width="90" height="46" as="geometry" />
        </mxCell>
        <mxCell id="jKXEdhJsQPB0T8cpcpmc-57" value="Category" style="ellipse;whiteSpace=wrap;html=1;" parent="1" vertex="1">
          <mxGeometry x="-662" y="467" width="90" height="46" as="geometry" />
        </mxCell>
        <mxCell id="jKXEdhJsQPB0T8cpcpmc-58" value="FilePath" style="ellipse;whiteSpace=wrap;html=1;" parent="1" vertex="1">
          <mxGeometry x="-649" y="543" width="90" height="46" as="geometry" />
        </mxCell>
        <mxCell id="jKXEdhJsQPB0T8cpcpmc-65" value="" style="endArrow=none;html=1;rounded=0;curved=1;entryX=0.5;entryY=0;entryDx=0;entryDy=0;exitX=1;exitY=1;exitDx=0;exitDy=0;" parent="1" source="jKXEdhJsQPB0T8cpcpmc-55" target="jKXEdhJsQPB0T8cpcpmc-2" edge="1">
          <mxGeometry width="50" height="50" relative="1" as="geometry">
            <mxPoint x="-424" y="532" as="sourcePoint" />
            <mxPoint x="-349" y="558" as="targetPoint" />
          </mxGeometry>
        </mxCell>
        <mxCell id="jKXEdhJsQPB0T8cpcpmc-66" value="" style="endArrow=none;html=1;rounded=0;curved=1;entryX=0;entryY=0;entryDx=0;entryDy=0;exitX=1;exitY=0.5;exitDx=0;exitDy=0;" parent="1" source="jKXEdhJsQPB0T8cpcpmc-56" target="jKXEdhJsQPB0T8cpcpmc-2" edge="1">
          <mxGeometry width="50" height="50" relative="1" as="geometry">
            <mxPoint x="-475.43" y="540" as="sourcePoint" />
            <mxPoint x="-402.43" y="610" as="targetPoint" />
          </mxGeometry>
        </mxCell>
        <mxCell id="jKXEdhJsQPB0T8cpcpmc-67" value="" style="endArrow=none;html=1;rounded=0;curved=1;entryX=0;entryY=0.25;entryDx=0;entryDy=0;exitX=1;exitY=0.5;exitDx=0;exitDy=0;" parent="1" source="jKXEdhJsQPB0T8cpcpmc-57" target="jKXEdhJsQPB0T8cpcpmc-2" edge="1">
          <mxGeometry width="50" height="50" relative="1" as="geometry">
            <mxPoint x="-519" y="585" as="sourcePoint" />
            <mxPoint x="-416" y="629" as="targetPoint" />
          </mxGeometry>
        </mxCell>
        <mxCell id="jKXEdhJsQPB0T8cpcpmc-68" value="" style="endArrow=none;html=1;rounded=0;curved=1;entryX=0;entryY=0.5;entryDx=0;entryDy=0;exitX=1;exitY=0;exitDx=0;exitDy=0;" parent="1" source="jKXEdhJsQPB0T8cpcpmc-58" target="jKXEdhJsQPB0T8cpcpmc-2" edge="1">
          <mxGeometry width="50" height="50" relative="1" as="geometry">
            <mxPoint x="-579" y="610" as="sourcePoint" />
            <mxPoint x="-389" y="614" as="targetPoint" />
          </mxGeometry>
        </mxCell>
        <mxCell id="O_Xi7BPwdJG2Z4PgSkja-40" value="User_ID" style="ellipse;whiteSpace=wrap;html=1;" parent="1" vertex="1">
          <mxGeometry x="-577" y="589" width="90" height="46" as="geometry" />
        </mxCell>
        <mxCell id="O_Xi7BPwdJG2Z4PgSkja-41" value="" style="endArrow=none;html=1;rounded=0;curved=1;entryX=0.25;entryY=1;entryDx=0;entryDy=0;exitX=1;exitY=0;exitDx=0;exitDy=0;" parent="1" source="O_Xi7BPwdJG2Z4PgSkja-40" target="jKXEdhJsQPB0T8cpcpmc-2" edge="1">
          <mxGeometry width="50" height="50" relative="1" as="geometry">
            <mxPoint x="-520" y="653" as="sourcePoint" />
            <mxPoint x="-329" y="554" as="targetPoint" />
          </mxGeometry>
        </mxCell>
        <mxCell id="O_Xi7BPwdJG2Z4PgSkja-42" value="User_ID" style="ellipse;whiteSpace=wrap;html=1;" parent="1" vertex="1">
          <mxGeometry x="-595" y="278" width="90" height="46" as="geometry" />
        </mxCell>
        <mxCell id="O_Xi7BPwdJG2Z4PgSkja-43" value="" style="endArrow=none;html=1;rounded=0;curved=1;entryX=0.5;entryY=1;entryDx=0;entryDy=0;exitX=1;exitY=0;exitDx=0;exitDy=0;" parent="1" source="O_Xi7BPwdJG2Z4PgSkja-42" target="jKXEdhJsQPB0T8cpcpmc-3" edge="1">
          <mxGeometry width="50" height="50" relative="1" as="geometry">
            <mxPoint x="-363.86" y="261" as="sourcePoint" />
            <mxPoint x="-293" y="162.5" as="targetPoint" />
          </mxGeometry>
        </mxCell>
        <mxCell id="YIFVvVKXj9GRG11fofVO-1" value="" style="endArrow=none;dashed=1;html=1;rounded=0;" parent="1" edge="1">
          <mxGeometry width="50" height="50" relative="1" as="geometry">
            <mxPoint x="-627" y="243" as="sourcePoint" />
            <mxPoint x="-565" y="243" as="targetPoint" />
          </mxGeometry>
        </mxCell>
        <mxCell id="YIFVvVKXj9GRG11fofVO-2" value="" style="endArrow=none;dashed=1;html=1;rounded=0;" parent="1" edge="1">
          <mxGeometry width="50" height="50" relative="1" as="geometry">
            <mxPoint x="-570" y="310" as="sourcePoint" />
            <mxPoint x="-529" y="310" as="targetPoint" />
          </mxGeometry>
        </mxCell>
        <mxCell id="YIFVvVKXj9GRG11fofVO-3" value="" style="endArrow=none;dashed=1;html=1;rounded=0;jumpSize=1;" parent="1" edge="1">
          <mxGeometry width="50" height="50" relative="1" as="geometry">
            <mxPoint x="-557" y="621" as="sourcePoint" />
            <mxPoint x="-508" y="621" as="targetPoint" />
          </mxGeometry>
        </mxCell>
        <mxCell id="YIFVvVKXj9GRG11fofVO-4" value="" style="endArrow=none;dashed=1;html=1;rounded=0;jumpSize=1;" parent="1" edge="1">
          <mxGeometry width="50" height="50" relative="1" as="geometry">
            <mxPoint x="-578" y="861" as="sourcePoint" />
            <mxPoint x="-521" y="861" as="targetPoint" />
          </mxGeometry>
        </mxCell>
        <mxCell id="YIFVvVKXj9GRG11fofVO-5" value="" style="endArrow=none;dashed=1;html=1;rounded=0;jumpSize=1;" parent="1" edge="1">
          <mxGeometry width="50" height="50" relative="1" as="geometry">
            <mxPoint x="-491" y="897" as="sourcePoint" />
            <mxPoint x="-443" y="897" as="targetPoint" />
          </mxGeometry>
        </mxCell>
        <mxCell id="YIFVvVKXj9GRG11fofVO-6" value="" style="endArrow=none;dashed=1;html=1;rounded=0;jumpSize=1;" parent="1" edge="1">
          <mxGeometry width="50" height="50" relative="1" as="geometry">
            <mxPoint x="-391" y="998.9999999999999" as="sourcePoint" />
            <mxPoint x="-310" y="998.9999999999999" as="targetPoint" />
          </mxGeometry>
        </mxCell>
        <mxCell id="YIFVvVKXj9GRG11fofVO-7" value="" style="endArrow=none;dashed=1;html=1;rounded=0;jumpSize=1;entryX=0.822;entryY=0.674;entryDx=0;entryDy=0;entryPerimeter=0;" parent="1" edge="1">
          <mxGeometry width="50" height="50" relative="1" as="geometry">
            <mxPoint x="6.0000000000000036" y="1010.0000000000001" as="sourcePoint" />
            <mxPoint x="86.95399999999997" y="1010.004" as="targetPoint" />
          </mxGeometry>
        </mxCell>
        <mxCell id="YIFVvVKXj9GRG11fofVO-8" value="" style="endArrow=none;dashed=1;html=1;rounded=0;jumpSize=1;" parent="1" edge="1">
          <mxGeometry width="50" height="50" relative="1" as="geometry">
            <mxPoint x="574" y="952" as="sourcePoint" />
            <mxPoint x="618" y="952" as="targetPoint" />
          </mxGeometry>
        </mxCell>
        <mxCell id="YIFVvVKXj9GRG11fofVO-9" value="" style="endArrow=none;dashed=1;html=1;rounded=0;jumpSize=1;" parent="1" edge="1">
          <mxGeometry width="50" height="50" relative="1" as="geometry">
            <mxPoint x="560.5" y="472" as="sourcePoint" />
            <mxPoint x="609.5" y="472" as="targetPoint" />
          </mxGeometry>
        </mxCell>
        <mxCell id="YIFVvVKXj9GRG11fofVO-10" value="" style="endArrow=none;dashed=1;html=1;rounded=0;jumpSize=1;" parent="1" source="jKXEdhJsQPB0T8cpcpmc-101" edge="1">
          <mxGeometry width="50" height="50" relative="1" as="geometry">
            <mxPoint x="592.5" y="404" as="sourcePoint" />
            <mxPoint x="641.5" y="404" as="targetPoint" />
          </mxGeometry>
        </mxCell>
        <mxCell id="YIFVvVKXj9GRG11fofVO-11" value="" style="endArrow=none;dashed=1;html=1;rounded=0;jumpSize=1;" parent="1" edge="1">
          <mxGeometry width="50" height="50" relative="1" as="geometry">
            <mxPoint x="586.5" y="167" as="sourcePoint" />
            <mxPoint x="635.5" y="167" as="targetPoint" />
          </mxGeometry>
        </mxCell>
        <mxCell id="VznqwO-0SXFQ0k9bwNJa-4" value="Reward" style="shape=ext;margin=3;double=1;whiteSpace=wrap;html=1;align=center;" parent="1" vertex="1">
          <mxGeometry x="109" y="908" width="111" height="47" as="geometry" />
        </mxCell>
        <mxCell id="VznqwO-0SXFQ0k9bwNJa-6" value="Earns" style="shape=rhombus;double=1;perimeter=rhombusPerimeter;whiteSpace=wrap;html=1;align=center;" parent="1" vertex="1">
          <mxGeometry x="56" y="783" width="84" height="86" as="geometry" />
        </mxCell>
        <mxCell id="VznqwO-0SXFQ0k9bwNJa-7" value="Views" style="shape=rhombus;double=1;perimeter=rhombusPerimeter;whiteSpace=wrap;html=1;align=center;" parent="1" vertex="1">
          <mxGeometry x="-117" y="783" width="84" height="86" as="geometry" />
        </mxCell>
        <mxCell id="VznqwO-0SXFQ0k9bwNJa-8" value="Progress Report" style="shape=ext;margin=3;double=1;whiteSpace=wrap;html=1;align=center;" parent="1" vertex="1">
          <mxGeometry x="-194" y="903" width="111" height="47" as="geometry" />
        </mxCell>
        <mxCell id="VznqwO-0SXFQ0k9bwNJa-20" style="edgeStyle=orthogonalEdgeStyle;rounded=0;orthogonalLoop=1;jettySize=auto;html=1;endArrow=none;startFill=0;startArrow=ERzeroToMany;" parent="1" source="VznqwO-0SXFQ0k9bwNJa-10" target="VznqwO-0SXFQ0k9bwNJa-18" edge="1">
          <mxGeometry relative="1" as="geometry" />
        </mxCell>
        <mxCell id="VznqwO-0SXFQ0k9bwNJa-24" style="edgeStyle=orthogonalEdgeStyle;rounded=0;orthogonalLoop=1;jettySize=auto;html=1;entryX=0;entryY=0.5;entryDx=0;entryDy=0;endArrow=none;startFill=0;startArrow=ERoneToMany;" parent="1" source="VznqwO-0SXFQ0k9bwNJa-10" target="VznqwO-0SXFQ0k9bwNJa-21" edge="1">
          <mxGeometry relative="1" as="geometry">
            <mxPoint x="180" y="478.42860630580356" as="targetPoint" />
          </mxGeometry>
        </mxCell>
        <mxCell id="VznqwO-0SXFQ0k9bwNJa-10" value="UserGroup" style="rounded=0;whiteSpace=wrap;html=1;" parent="1" vertex="1">
          <mxGeometry x="134" y="434" width="79" height="47" as="geometry" />
        </mxCell>
        <mxCell id="VznqwO-0SXFQ0k9bwNJa-11" value="Activity Type" style="ellipse;whiteSpace=wrap;html=1;" parent="1" vertex="1">
          <mxGeometry x="-305" y="1013" width="90" height="46" as="geometry" />
        </mxCell>
        <mxCell id="VznqwO-0SXFQ0k9bwNJa-12" value="" style="endArrow=none;html=1;rounded=0;curved=1;exitX=0.704;exitY=0.07;exitDx=0;exitDy=0;exitPerimeter=0;" parent="1" source="VznqwO-0SXFQ0k9bwNJa-11" edge="1">
          <mxGeometry width="50" height="50" relative="1" as="geometry">
            <mxPoint x="-358" y="1048.5" as="sourcePoint" />
            <mxPoint x="-169" y="951" as="targetPoint" />
          </mxGeometry>
        </mxCell>
        <mxCell id="VznqwO-0SXFQ0k9bwNJa-13" value="Engagement Score" style="ellipse;whiteSpace=wrap;html=1;" parent="1" vertex="1">
          <mxGeometry x="-83" y="1024" width="90" height="46" as="geometry" />
        </mxCell>
        <mxCell id="VznqwO-0SXFQ0k9bwNJa-14" value="" style="endArrow=none;html=1;rounded=0;curved=1;entryX=1;entryY=1;entryDx=0;entryDy=0;" parent="1" source="VznqwO-0SXFQ0k9bwNJa-13" target="VznqwO-0SXFQ0k9bwNJa-8" edge="1">
          <mxGeometry width="50" height="50" relative="1" as="geometry">
            <mxPoint x="-64" y="1032" as="sourcePoint" />
            <mxPoint x="-89.99300000000017" y="949.4960000000001" as="targetPoint" />
          </mxGeometry>
        </mxCell>
        <mxCell id="VznqwO-0SXFQ0k9bwNJa-17" style="edgeStyle=orthogonalEdgeStyle;rounded=0;orthogonalLoop=1;jettySize=auto;html=1;startArrow=ERmandOne;startFill=0;endArrow=none;endFill=0;entryX=0;entryY=0.5;entryDx=0;entryDy=0;" parent="1" edge="1">
          <mxGeometry relative="1" as="geometry">
            <mxPoint x="54" y="191" as="sourcePoint" />
            <mxPoint x="140" y="354.5" as="targetPoint" />
            <Array as="points">
              <mxPoint x="54" y="355" />
              <mxPoint x="134" y="355" />
            </Array>
          </mxGeometry>
        </mxCell>
        <mxCell id="VznqwO-0SXFQ0k9bwNJa-18" value="Joins" style="rhombus;whiteSpace=wrap;html=1;" parent="1" vertex="1">
          <mxGeometry x="140" y="320" width="68" height="71" as="geometry" />
        </mxCell>
        <mxCell id="VznqwO-0SXFQ0k9bwNJa-25" style="edgeStyle=orthogonalEdgeStyle;rounded=0;orthogonalLoop=1;jettySize=auto;html=1;entryX=0.25;entryY=0;entryDx=0;entryDy=0;endArrow=ERmandOne;endFill=0;" parent="1" source="VznqwO-0SXFQ0k9bwNJa-21" target="jKXEdhJsQPB0T8cpcpmc-5" edge="1">
          <mxGeometry relative="1" as="geometry" />
        </mxCell>
        <mxCell id="VznqwO-0SXFQ0k9bwNJa-21" value="Has" style="rhombus;whiteSpace=wrap;html=1;" parent="1" vertex="1">
          <mxGeometry x="201" y="520" width="68.5" height="69" as="geometry" />
        </mxCell>
        <mxCell id="VznqwO-0SXFQ0k9bwNJa-26" value="&lt;u&gt;User_ID&lt;/u&gt;" style="ellipse;whiteSpace=wrap;html=1;" parent="1" vertex="1">
          <mxGeometry x="54.5" y="496" width="81" height="41" as="geometry" />
        </mxCell>
        <mxCell id="VznqwO-0SXFQ0k9bwNJa-27" value="" style="endArrow=none;html=1;rounded=0;curved=1;exitX=0.706;exitY=0.034;exitDx=0;exitDy=0;exitPerimeter=0;entryX=0;entryY=1;entryDx=0;entryDy=0;" parent="1" source="VznqwO-0SXFQ0k9bwNJa-26" target="VznqwO-0SXFQ0k9bwNJa-10" edge="1">
          <mxGeometry width="50" height="50" relative="1" as="geometry">
            <mxPoint x="64.33600782084386" y="522.6572943591452" as="sourcePoint" />
            <mxPoint x="134" y="469" as="targetPoint" />
          </mxGeometry>
        </mxCell>
        <mxCell id="VznqwO-0SXFQ0k9bwNJa-29" value="&lt;u&gt;Group_ID&lt;/u&gt;" style="ellipse;whiteSpace=wrap;html=1;" parent="1" vertex="1">
          <mxGeometry x="57" y="390" width="72" height="44" as="geometry" />
        </mxCell>
        <mxCell id="VznqwO-0SXFQ0k9bwNJa-30" value="" style="endArrow=none;html=1;rounded=0;curved=1;exitX=1;exitY=1;exitDx=0;exitDy=0;" parent="1" source="VznqwO-0SXFQ0k9bwNJa-29" target="VznqwO-0SXFQ0k9bwNJa-10" edge="1">
          <mxGeometry width="50" height="50" relative="1" as="geometry">
            <mxPoint x="238.08600782084386" y="398.6572943591452" as="sourcePoint" />
            <mxPoint x="214" y="378" as="targetPoint" />
          </mxGeometry>
        </mxCell>
        <mxCell id="VznqwO-0SXFQ0k9bwNJa-32" value="Member Count" style="ellipse;whiteSpace=wrap;html=1;" parent="1" vertex="1">
          <mxGeometry x="527" y="606" width="90" height="46" as="geometry" />
        </mxCell>
        <mxCell id="VznqwO-0SXFQ0k9bwNJa-34" value="" style="endArrow=none;html=1;rounded=0;curved=1;exitX=0.022;exitY=0.69;exitDx=0;exitDy=0;entryX=1;entryY=0.25;entryDx=0;entryDy=0;exitPerimeter=0;" parent="1" source="VznqwO-0SXFQ0k9bwNJa-32" target="jKXEdhJsQPB0T8cpcpmc-5" edge="1">
          <mxGeometry width="50" height="50" relative="1" as="geometry">
            <mxPoint x="539.0024688486582" y="680.4162344243293" as="sourcePoint" />
            <mxPoint x="391.17" y="658" as="targetPoint" />
          </mxGeometry>
        </mxCell>
        <mxCell id="VznqwO-0SXFQ0k9bwNJa-35" value="" style="endArrow=none;dashed=1;html=1;rounded=0;jumpSize=1;" parent="1" target="jKXEdhJsQPB0T8cpcpmc-101" edge="1">
          <mxGeometry width="50" height="50" relative="1" as="geometry">
            <mxPoint x="592.5" y="404" as="sourcePoint" />
            <mxPoint x="641.5" y="404" as="targetPoint" />
          </mxGeometry>
        </mxCell>
        <mxCell id="jKXEdhJsQPB0T8cpcpmc-101" value="User_ID" style="ellipse;whiteSpace=wrap;html=1;" parent="1" vertex="1">
          <mxGeometry x="553" y="376" width="90" height="46" as="geometry" />
        </mxCell>
        <mxCell id="VznqwO-0SXFQ0k9bwNJa-36" value="" style="endArrow=none;dashed=1;html=1;rounded=0;jumpSize=1;" parent="1" edge="1">
          <mxGeometry width="50" height="50" relative="1" as="geometry">
            <mxPoint x="573.5" y="408" as="sourcePoint" />
            <mxPoint x="622.5" y="408" as="targetPoint" />
          </mxGeometry>
        </mxCell>
        <mxCell id="VznqwO-0SXFQ0k9bwNJa-37" value="Comments" style="ellipse;shape=doubleEllipse;margin=3;whiteSpace=wrap;html=1;align=center;" parent="1" vertex="1">
          <mxGeometry x="570" y="196" width="100" height="40" as="geometry" />
        </mxCell>
        <mxCell id="VznqwO-0SXFQ0k9bwNJa-38" value="Length" style="ellipse;whiteSpace=wrap;html=1;align=center;dashed=1;" parent="1" vertex="1">
          <mxGeometry x="-660" y="145" width="100" height="40" as="geometry" />
        </mxCell>
        <mxCell id="VznqwO-0SXFQ0k9bwNJa-39" value="Role" style="ellipse;whiteSpace=wrap;html=1;" parent="1" vertex="1">
          <mxGeometry x="144" y="17" width="90" height="46" as="geometry" />
        </mxCell>
        <mxCell id="VznqwO-0SXFQ0k9bwNJa-40" value="" style="endArrow=none;html=1;rounded=0;curved=1;exitX=0;exitY=1;exitDx=0;exitDy=0;entryX=1;entryY=0;entryDx=0;entryDy=0;" parent="1" source="VznqwO-0SXFQ0k9bwNJa-39" target="jKXEdhJsQPB0T8cpcpmc-1" edge="1">
          <mxGeometry width="50" height="50" relative="1" as="geometry">
            <mxPoint x="77" y="67" as="sourcePoint" />
            <mxPoint x="53" y="151" as="targetPoint" />
          </mxGeometry>
        </mxCell>
      </root>
    </mxGraphModel>
  </diagram>
</mxfile>
